:SAMPLES-PER-SECOND 30
:FULLY-SPECIFIED
:DEGREES
84
root  -8.29047 35.3983 -7.00019 -2.25037 -74.2954 -11.0052
RightUpLeg  -41.0052 -21.7275 -1.47782
RightLeg  9.30086 -12.2666 3.31457
RightFoot  -3.67879 -0.495838 7.0289
RightToes  0.00048216 0.542163 -0.142577
Spine  42.8933 1.54012 -13.7678
Spine1  7.66533 -7.27513 11.8854
HEad  -10.0221 9.59535 5.41009
LeftShoulder1  4.78708 -8.63524 -33.5157
LeftArm  -24.2742 6.02455 -16.0595
LeftForeArm  37.1024 -40.1867 -7.07548
LeftHand  -0.25398 0.0180481 5.50724
RightShoulder  3.44388 5.73223 31.3352
RightArm  15.5689 -44.057 43.5113
RightForeArm  10.1808 41.201 9.13861
RightHand  0.245873 -10.3204 -7.165
LeftUpLeg  -7.39107 8.83608 3.1217
LeftLeg  58.4049 9.6014 16.8994
LeftFoot  -31.7461 -0.899721 -6.11113
LeftToes  1.06246e-005 4.65856e-005 -8.18504e-006
85
root  -10.7889 34.8977 -6.98224 -6.43494 -71.5688 -4.56976
RightUpLeg  -36.9496 -21.5131 -2.25871
RightLeg  12.1622 -7.86586 1.20837
RightFoot  -3.19772 -0.557154 7.46811
RightToes  0.00048216 0.542163 -0.142577
Spine  42.0619 1.00919 -14.3473
Spine1  6.59297 -8.30156 13.205
HEad  -9.4208 7.10621 6.0222
LeftShoulder1  7.23021 -11.7869 -41.0868
LeftArm  -13.6793 -5.11856 -22.9839
LeftForeArm  46.0737 -41.5162 -6.95334
LeftHand  -0.25398 0.0180481 5.50724
RightShoulder  3.7645 6.47736 31.7668
RightArm  11.9168 -39.0197 39.3718
RightForeArm  9.52723 45.6244 10.7672
RightHand  0.376298 -10.7907 -9.46493
LeftUpLeg  -5.21417 7.13973 2.57704
LeftLeg  58.7435 9.21076 16.4707
LeftFoot  -36.867 -1.56193 -7.79211
LeftToes  1.06246e-005 4.65856e-005 -8.18504e-006
86
root  -13.3418 34.5537 -6.95365 -8.03333 -67.4012 0.252808
RightUpLeg  -37.4718 -25.9132 -0.825806
RightLeg  18.1705 -2.23849 -1.16057
RightFoot  1.9102 -0.78487 6.90513
RightToes  0.00048216 0.542163 -0.142577
Spine  42.4719 -0.404051 -13.019
Spine1  3.70761 -9.13085 14.258
HEad  -11.6626 3.86999 6.87535
LeftShoulder1  8.57359 -13.463 -44.0305
LeftArm  -4.82194 -12.6295 -35.773
LeftForeArm  50.2691 -44.1472 -7.51102
LeftHand  -0.25398 0.0180481 5.50724
RightShoulder  4.07027 7.14788 32.2682
RightArm  8.716 -34.7572 35.4684
RightForeArm  7.19427 44.9594 10.7049
RightHand  0.444024 -9.97525 -12.4061
LeftUpLeg  -4.76866 3.68738 2.32544
LeftLeg  59.3463 7.95777 14.7398
LeftFoot  -38.8311 -2.92567 -12.9938
LeftToes  1.06246e-005 4.65856e-005 -8.18504e-006
87
root  -15.7064 34.5339 -6.81356 -5.7641 -66.0418 1.24786
RightUpLeg  -40.3957 -25.1716 -0.860013
RightLeg  24.0673 -3.14745 -1.7686
RightFoot  10.0465 -0.738796 4.40091
RightToes  0.00048216 0.542163 -0.142577
Spine  43.2339 -2.18509 -8.37709
Spine1  1.38932 -8.54258 12.9987
HEad  -16.1862 1.34091 7.10089
LeftShoulder1  8.94017 -14.3576 -43.552
LeftArm  2.86763 -16.3158 -49.0252
LeftForeArm  51.893 -47.9129 -8.71827
LeftHand  -0.25398 0.0180481 5.50724
RightShoulder  4.51554 8.38706 32.0455
RightArm  9.05848 -31.111 31.5853
RightForeArm  4.954 43.4779 10.293
RightHand  0.413823 -9.61296 -12.65
LeftUpLeg  -5.85282 2.90994 4.31394
LeftLeg  61.022 5.75155 11.7031
LeftFoot  -33.2203 -3.49668 -19.176
LeftToes  1.06246e-005 4.65856e-005 -8.18504e-006
88
root  -17.9089 34.7778 -6.66812 -2.60333 -67.8824 0.0335083
RightUpLeg  -44.356 -23.0021 1.07521
RightLeg  30.7854 -3.18739 -2.29069
RightFoot  13.4797 0.274257 -0.974802
RightToes  0.00048216 0.542163 -0.142577
Spine  43.9482 -3.33924 -3.18183
Spine1  0.721653 -7.19167 11.0408
HEad  -19.8841 0.101926 5.88263
LeftShoulder1  8.68909 -14.3211 -42.3405
LeftArm  8.17387 -17.108 -55.6756
LeftForeArm  56.6788 -53.2525 -10.5438
LeftHand  -0.25398 0.0180481 5.50724
RightShoulder  5.09509 10.184 31.2736
RightArm  11.0818 -27.6418 27.9277
RightForeArm  2.73788 43.0102 10.2709
RightHand  0.337104 -9.30953 -11.3689
LeftUpLeg  -8.18479 5.67859 7.54007
LeftLeg  65.344 4.47343 11.3156
LeftFoot  -20.2487 -1.47517 -18.7222
LeftToes  1.06246e-005 4.65856e-005 -8.18504e-006
89
root  -20.0835 34.9671 -6.66063 -1.57275 -69.2796 -0.848877
RightUpLeg  -45.3575 -20.6537 1.79752
RightLeg  38.3447 -3.74558 -3.47057
RightFoot  8.98231 1.11563 -5.89604
RightToes  0.00048216 0.542163 -0.142577
Spine  44.6267 -3.94437 0.227027
Spine1  1.04196 -6.36504 10.8365
HEad  -21.0905 -1.15697 3.74462
LeftShoulder1  8.42159 -13.8281 -42.2006
LeftArm  7.77299 -16.2593 -54.0975
LeftForeArm  60.0188 -56.0314 -11.5988
LeftHand  -0.25398 0.0180481 5.50724
RightShoulder  5.39026 11.1005 30.9507
RightArm  10.3903 -23.7878 25.387
RightForeArm  1.77168 42.2377 10.0576
RightHand  0.250905 -8.33482 -11.6688
LeftUpLeg  -12.0726 7.84365 9.75718
LeftLeg  72.5112 3.48466 13.3472
LeftFoot  -6.4964 0.44147 -9.58287
LeftToes  1.06246e-005 4.65856e-005 -8.18504e-006
90
root  -22.2528 35.1391 -6.75031 -2.98926 -68.2678 -0.0634155
RightUpLeg  -43.2419 -19.5446 0.80949
RightLeg  44.527 -5.1191 -5.68755
RightFoot  1.73241 0.797886 -6.67604
RightToes  0.00048216 0.542163 -0.142577
Spine  44.8384 -4.45971 2.59268
Spine1  1.52288 -6.26342 12.2123
HEad  -20.4899 -3.62141 1.56624
LeftShoulder1  8.54854 -13.6938 -43.2296
LeftArm  1.99647 -14.1544 -47.9217
LeftForeArm  54.1336 -52.0018 -10.2482
LeftHand  -0.25398 0.0180481 5.50724
RightShoulder  5.20231 10.4252 31.4063
RightArm  5.82592 -20.4063 23.8717
RightForeArm  1.91091 41.3202 9.72526
RightHand  0.187354 -7.31553 -13.3907
LeftUpLeg  -17.7609 6.76521 9.81461
LeftLeg  80.095 1.89767 15.1423
LeftFoot  0.526313 0.189407 -1.3594
LeftToes  1.06246e-005 4.65856e-005 -8.18504e-006
